/* XPM */
static char *_[] = {
/* columns rows colors chars-per-pixel */
"32 32 65 1 ",
"  c #83A70F",
". c #86AB10",
"X c #86AA12",
"o c #87AB13",
"O c #88AD12",
"+ c #89AE13",
"@ c #88AC14",
"# c #89AD15",
"$ c #8AAF14",
"% c #8AAE16",
"& c #8BAF17",
"* c #8BB015",
"= c #8CB116",
"- c #8DB217",
"; c #8CB018",
": c #8DB119",
"> c #8EB318",
", c #8EB21A",
"< c #8FB31B",
"1 c #8FB419",
"2 c #90B51A",
"3 c #91B61B",
"4 c #90B41C",
"5 c #91B51D",
"6 c #92B71C",
"7 c #92B61E",
"8 c #93B71F",
"9 c #93B81D",
"0 c #94B91E",
"q c #95BA1F",
"w c #94B820",
"e c #95B921",
"r c #96BB20",
"t c #96BA22",
"y c #97BB23",
"u c #97BC21",
"i c #98BD22",
"p c #99BE23",
"a c #98BC24",
"s c #99BD25",
"d c #9ABF24",
"f c #9ABE26",
"g c #9BBF27",
"h c #9BC025",
"j c #9CC126",
"k c #9DC227",
"l c #9CC028",
"z c #9DC129",
"x c #9EC328",
"c c #9EC22A",
"v c #9FC32B",
"b c #9FC429",
"n c #A0C52A",
"m c #A1C62B",
"M c #A0C42C",
"N c #A1C52D",
"B c #A2C72C",
"V c #A2C62E",
"C c #A3C72F",
"Z c #A3C82D",
"A c #A4C92E",
"S c #A5CA2F",
"D c #A4C830",
"F c #A5C931",
"G c #A6CB30",
/* pixels */
"w,w7wayCr0r-u9997:t5syw7acttyey4",
"a48858eybnx9d0qdw<y,87wyyssva:55",
"8<4yw7t43u9-u0pAt7f47<7y5sla,8g<",
",yegf7e7-0$+016xt8zesw55878:#sFt",
"wFzff<5aqd-6dqqhw<sevlt7gX@7<5zD",
"yFl77<wNjb6kkripw;84zvzst%7y4<eM",
"eey<&5ylmZuB0$218;7:afgf48gw<e8w",
"e#e5o57&pjqZ1.9q8,t<twwea5e8te,e",
"w<845se<>-2ri0-Oe4a<&<g,unjrdj9>",
"y,8tlDlwhq6qu036aws,;<g76iu90r09",
"4o,wsNcgxr29q33rsfz585t7rru0120q",
"4%7wwgvDp92qp06ptzMtg874u369-1q9",
"8,e8<weauq9ibdim5fctcewe3+*33qi9",
"e4t85w& 0u69hpim,wa4s8sci09uhxh9",
"yycgfMto6p91rq6i<5t<w<ylxBbjbni3",
"<eMfaVc80bd9pu2655a77&78rnxudd91",
"606929i>udnhpp210uO9r=q2w8Vy<5@y",
"r90hq=630rxdii>*0u6pr1iq84fewa4t",
"0quxq-09qqdr9q-+0rxxqqhiy857et5%",
"ibxp36u*6-622pr0q9Bx9dju74%4tfz5",
"BAkr29q.q1066di9i1kp6jp678:wefFs",
"bd9rqqp2i2uurkp1d2uq6dr25858:5cw",
"931qrinpq*6qrBmukq000r00%:77%5l8",
"=ru92pm0Srr61dh6xd0qq69ieezf<ef4",
"r>>O>p9362r$6qipur90hbi=8lMfy74s",
"u3923u6q06j699q0O*20rpnGlvle7,:8",
"r0urriuh32njuidr69qq>*qZffw78745",
"riprixbk01bmdkkrpur01=2i88,8sat4",
"hxi3rmBup2dbuhr>udduriu087;wsaf4",
"bmu20jk10=6p9i2-rkmxhjdq57&8ttMa",
"jk9909u2>-6p9u1010djhdpi,7;e85Ms",
"rq1rr-9q3qhbqq=u912ri9224t8f8&a<"
};
