/* XPM */
static char *_[] = {
/* columns rows colors chars-per-pixel */
"32 32 218 2 ",
"   c #5F7803",
".  c #6B6C0D",
"X  c #666B06",
"o  c #6A7806",
"O  c #72790D",
"+  c #79760F",
"@  c #666C16",
"#  c #736E1A",
"$  c #6D7D12",
"%  c #74731A",
"&  c #787E1B",
"*  c #7E7820",
"=  c #837C1C",
"-  c #857617",
";  c #8C7C24",
":  c #917B25",
">  c #748207",
",  c #76910E",
"<  c #7A8C13",
"1  c #768919",
"2  c #7D9114",
"3  c #8B8C15",
"4  c #8B831F",
"5  c #84881A",
"6  c #93841B",
"7  c #948D1C",
"8  c #998C1B",
"9  c #98851C",
"0  c #869717",
"q  c #93961E",
"w  c #A2931E",
"e  c #85AA0D",
"r  c #85A70B",
"t  c #83B20F",
"y  c #8BBA0E",
"u  c #86AA13",
"i  c #8AAE16",
"p  c #8BA41E",
"a  c #8CAD1B",
"s  c #84AE1A",
"d  c #94AE1D",
"f  c #87B314",
"g  c #8CB315",
"h  c #8DB816",
"j  c #8EB31B",
"k  c #8DBB1B",
"l  c #87BA15",
"z  c #92B515",
"x  c #95BB15",
"c  c #92B51C",
"v  c #93BB1C",
"b  c #98BB1E",
"n  c #8C8D25",
"m  c #8A852B",
"M  c #898B2B",
"N  c #878B2D",
"B  c #9B8D25",
"V  c #968428",
"C  c #948D2A",
"Z  c #9D8D2B",
"A  c #968622",
"S  c #8E9D20",
"D  c #899422",
"F  c #919A24",
"G  c #9C9D25",
"H  c #9B9229",
"J  c #9C9B2D",
"K  c #989126",
"L  c #8E8230",
"P  c #9C8E34",
"I  c #948833",
"U  c #839831",
"Y  c #959435",
"T  c #9A9730",
"R  c #A28D23",
"E  c #A28E2B",
"W  c #A18521",
"Q  c #A69526",
"!  c #A39C26",
"~  c #A4932A",
"^  c #AA952B",
"/  c #A49C2B",
"(  c #AA992D",
")  c #AA9625",
"_  c #B19D2E",
"`  c #A38E33",
"'  c #AB9634",
"]  c #AE9C32",
"[  c #A69B39",
"{  c #AC9C39",
"}  c #A49536",
"|  c #B39D33",
" . c #B39E3E",
".. c #8BA426",
"X. c #94AE24",
"o. c #9CAD2A",
"O. c #98A526",
"+. c #8EB321",
"@. c #94B423",
"#. c #9BB625",
"$. c #96BA22",
"%. c #9ABC25",
"&. c #93B32A",
"*. c #9CB42B",
"=. c #95BA2A",
"-. c #9BBC2B",
";. c #9DB331",
":. c #9DBB32",
">. c #9EB83D",
",. c #A7AE2C",
"<. c #A9AC2E",
"1. c #A1A22D",
"2. c #B1A02E",
"3. c #A2B12B",
"4. c #ABAD32",
"5. c #AFA33A",
"6. c #AAA235",
"7. c #B4A335",
"8. c #BAA335",
"9. c #B4A23B",
"0. c #BAA43C",
"q. c #B5AC3B",
"w. c #BBAC3D",
"e. c #BBAA36",
"r. c #A4B334",
"t. c #A8B336",
"y. c #A5BE35",
"u. c #AFBD39",
"i. c #BCB33A",
"p. c #B1B739",
"a. c #C1AD3C",
"s. c #C0B03F",
"d. c #96C11B",
"f. c #99C21E",
"g. c #95C123",
"h. c #9AC122",
"j. c #9CC824",
"k. c #9EC22B",
"l. c #9CC82B",
"z. c #A2C426",
"x. c #A2C42D",
"c. c #A2CA2C",
"v. c #A3C331",
"b. c #A9C333",
"n. c #A5C933",
"m. c #B0C039",
"M. c #BAA642",
"N. c #BDAB43",
"B. c #BDAC4A",
"V. c #B3A343",
"C. c #BDB248",
"Z. c #A9A345",
"A. c #C3A643",
"S. c #C1AC44",
"D. c #C1AE48",
"F. c #C2B443",
"G. c #C6B34A",
"H. c #CAB54C",
"J. c #CDBB4D",
"K. c #CAB645",
"L. c #D2BA4C",
"P. c #C5B551",
"I. c #CDBA54",
"U. c #CCBA5C",
"Y. c #CAB558",
"T. c #D1BD54",
"R. c #D3BE5A",
"E. c #D8BB5D",
"W. c #CDBB60",
"Q. c #D2BE61",
"!. c #D5BF6C",
"~. c #B6C840",
"^. c #C1C24A",
"/. c #D2C64D",
"(. c #CDC457",
"). c #D5C257",
"_. c #D4C35C",
"`. c #D9C65F",
"'. c #DBCA5D",
"]. c #D5C95B",
"[. c #D0D056",
"{. c #E1CD5D",
"}. c #CFCA62",
"|. c #D5C364",
" X c #D9C563",
".X c #DCCA64",
"XX c #DAC66B",
"oX c #DECB6A",
"OX c #D6C867",
"+X c #DECA74",
"@X c #DAC576",
"#X c #E2CE6C",
"$X c #E3C764",
"%X c #E2D064",
"&X c #EAD46E",
"*X c #E4D16C",
"=X c #E1CD72",
"-X c #E2CD7A",
";X c #E5D274",
":X c #E9D674",
">X c #EDDB75",
",X c #E5D27B",
"<X c #EAD57B",
"1X c #EDD97D",
"2X c #E1DA72",
"3X c #F0DD7E",
"4X c #E7D183",
"5X c #EBD684",
"6X c #EFDA86",
"7X c #EBD68A",
"8X c #EEDA8A",
"9X c #F2DD84",
"0X c #F2DD8B",
"qX c #F1DD96",
"wX c #F6E28C",
"eX c #F5E386",
"rX c #FBE69A",
"tX c #FEEA97",
/* pixels */
"$.c c $.c %.%.n.$.@.$.g v z x x v r b z b $.@.j k.k.-.=.:.=.h l ",
"%.c $.c c %.%.%.x.z.k.v h.b $.$.j c g.i j $.$.%.b $.$.-.=.+.h c ",
"c j c %.$.c c c z v c z h.@.$.n.=.-.=.a $.$.c c z %.k.$.j $.$.g ",
"j %.$.%.%.c %.c z v g r #.@.@.y.;.r.*.:.-.+.+.$.z z b c u $.n.$.",
"$.c.z.-.%.c c $.v g.c i m.p.! 3 n 7 q o.r.:.=.f %.r r c j j k.n.",
"#.n.k.c b j c -.v.*.*.p.[.F.7.| | 8.7.G 3 O.;.:.#.X.c c j j $.v.",
"c %.%.c i c b %.4.G / i.I.7. .E.T.8._ 8.C.).q./ 0 :.v.$.c b b $.",
"c i %.c u j c u R ^ G..X&X`._..XL.8.8.a.w. .W |   ..;.c c c i $.",
"#.+.$.f z *.t.3 9.w.'._.-XrX+X_. XI.| ( | 9.^ E B.[ X >.=.v g.+.",
"*.j v v c.m.^.6._.>X'.;X0X4X0X.XoX.X`.I.8.G.0.- 0.H X < =.k $.+.",
"a u j c 3.3.w.0.P.:XoXW.@X7X0XXXwX.XD.I.G.] 6 9 R { C o , j =.$.",
"+.i $.#.O.! | A.XX X9X4X5XqX-XwX-X9X|.F.B.J.N.0.| ^ ; n o p c k.",
"=.f c ,.,.w.H.$X|.=X6XrX6X-X9X9X8X-X!.I.D.`.'.H.a.M.[ Y X ..v.h ",
"j j v.m.<.q. .A.B.-X8X8X!.XXtX+X8XXX!.>XR. .0. XL.w.9.Y &   &.v ",
"$.$.b.3.q 6.N.P.).XX4X4XU.U.+X+X6X9X$X#X>X=XM.` 8.2.K . @ 1 k.l ",
"l c b.t.1.(.|.(.*XeX0X5XXX X3X,X1XXX|.>XQ. .V : w ! C m @ U &.y ",
"l c.+.O.OXM.{ }.2XeX;X+X8X7XrXqX!.<XQ.E.&X].w.N.] 8 / [ Y $ ..x ",
"f.2 =.r.7 9..X2X_.].P.oXW.,X4X5X<X=X .' ).).0.9.] 8.6 ; @ 1 @.h.",
"d.x y.3./ *X*XP./.N.w.].N.U.Y.;X5X<XP.R w.%X0.6 ( 7.6 & @ 2 +.e ",
"v c.-.o.i.S.A 5.K.G.'.>X>XOXQ.1X;X#X_.I.H.H.7.] C.q.C.Z.M < :.h ",
"z.c.z.X.<.Q 0. XC.I. X:X<X=X-X1XR.I.I.%XK.7.0. Xw.H P m & 2 n.k.",
"z.b j.d ,.F.*XB.' B.B.;XY.>X#XQ.M.M.9.L.e.Q ] D./.B.I * O ;.-.l ",
"d.2 l @.3.! B C ).H.S.$X0.E.H.T.S.( R F.8.Q 6 R 7 Z I # . *.$.g.",
"l d.k k d <.K U.K.) 7.H.a.e.2.{.R.K.7._ 2.J.9.~ Q + m # 5 *.%.k ",
"f.v e g i F J } A C (.].w.i.s./.G.U.6.9.B 9..XD.P P + O X.-.f g.",
"%.b h k c p F n A V.B.Z ] G.| | w.K.^ | ^ B | B.C T F 0 o.&.f k ",
"c #.v d.$.$.o.S m A A Z B. .' E.8.8.^ E { P ; & > < p X.@.@.k +.",
"@.%.b k d.l.n.#.O.S F J K 4 ' I.E B [ = = m N % @.@.#.-.-.-.$.j ",
"-.x.%.k v j.c.g.k.=.-.*.0 0 ,.G 5 O D < < ..:.&.v k i c $.=.%.@.",
"x.x.$.k v $.d.h l f v j.b c #.d y.#.b.x.z.j.d.l j @.f j %.$.k.%.",
"$.g.@.@.#.c b c t l $.v z c c c r %.%.j.x x x x u @.j $.$.j k.$.",
"g.=.j $.#.d $.b $.c $.z.%.c i %.$.#.a x.#.@.=.X.$.%.$.-.c g %.j "
};
