/* XPM */
static char *bart_down[] = {
/* columns rows colors chars-per-pixel */
"32 32 144 2 ",
"   c #577B5B",
".  c #787640",
"X  c #696754",
"o  c #677B56",
"O  c #557F75",
"+  c #606777",
"@  c #9A2D3F",
"#  c #B52534",
"$  c #D90E25",
"%  c #CD292B",
"&  c #C8352D",
"*  c #CD273C",
"=  c #9B743C",
"-  c #B06138",
";  c #C84634",
":  c #813546",
">  c #953242",
",  c #844457",
"<  c #D66E7A",
"1  c #7E8B3A",
"2  c #6A815F",
"3  c #708559",
"4  c #669F56",
"5  c #6FA14B",
"6  c #6EAF4F",
"7  c #6EB14F",
"8  c #6EB84E",
"9  c #79B44D",
"0  c #71BD4F",
"q  c #70A752",
"w  c #6CB051",
"e  c #72BE51",
"r  c #73B15E",
"t  c #77BC5F",
"y  c #7ABC58",
"u  c #578D75",
"i  c #5C8C75",
"p  c #57917E",
"a  c #6F8E6D",
"s  c #7A9463",
"d  c #7B9B6D",
"f  c #658E7B",
"g  c #76BE60",
"h  c #73C051",
"j  c #BEAB17",
"k  c #968B25",
"l  c #9F952A",
"z  c #8F8C32",
"x  c #958D31",
"c  c #ADA125",
"v  c #BEB728",
"b  c #A9AC32",
"n  c #C3AC13",
"m  c #C8B719",
"M  c #DDC60A",
"N  c #E0C504",
"B  c #E9D006",
"V  c #F3D905",
"C  c #FADF01",
"Z  c #F7DA0A",
"A  c #FFE300",
"S  c #FFE408",
"D  c #FFE514",
"F  c #8F8448",
"G  c #869649",
"H  c #84985A",
"J  c #919A53",
"K  c #A18743",
"L  c #8AA84B",
"P  c #8AA559",
"I  c #81B05D",
"U  c #AA9069",
"Y  c #8CA169",
"T  c #9DAA70",
"R  c #84B078",
"E  c #A1AB74",
"W  c #83C268",
"Q  c #FFEC41",
"!  c #FFED4F",
"~  c #2F6D94",
"^  c #26739C",
"/  c #3F7095",
"(  c #45738D",
")  c #3B8985",
"_  c #3A878A",
"`  c #268B9D",
"'  c #1F8DA8",
"]  c #1B9BB5",
"[  c #2D8EAB",
"{  c #2497A6",
"}  c #398EB4",
"|  c #3F96B9",
" . c #3C9BBE",
".. c #4D838F",
"X. c #5A8784",
"o. c #5C9689",
"O. c #5B9D8C",
"+. c #518791",
"@. c #5B9492",
"#. c #52929C",
"$. c #589A9D",
"%. c #55B999",
"&. c #498EAD",
"*. c #4E94A3",
"=. c #4995A9",
"-. c #5296A1",
";. c #4B93B0",
":. c #439CBE",
">. c #47B6BB",
",. c #179EC3",
"<. c #068BDB",
"1. c #3E9CC5",
"2. c #3EA3CB",
"3. c #3DA7D1",
"4. c #3DA9D4",
"5. c #3BAEDC",
"6. c #3EB3D7",
"7. c #3CB2DC",
"8. c #06A5E5",
"9. c #03BBED",
"0. c #00B9FD",
"q. c #3AB2E1",
"w. c #42A8C6",
"e. c #41A5CC",
"r. c #00CAFF",
"t. c #A9B282",
"y. c #88A9B7",
"u. c #ABB4A5",
"i. c #B9BCBB",
"p. c #C4A495",
"a. c #C0BB9E",
"s. c #9AC988",
"d. c #B4CDA4",
"f. c #FEF38E",
"g. c #F3EA95",
"h. c #E8E5B9",
"j. c #C9C9C9",
"k. c #CBD7C6",
"l. c #D5D5D7",
"z. c #FEF8C1",
"x. c #E2E1D9",
"c. c #FFFCD1",
"v. c #F2F1E7",
"b. c #FAFAF0",
/* pixels */
"q.q.q.q.q.q.q.q.q.q.q.q.q.q.q.q.q.q.q.q.q.q.q.q.q.q.q.q.q.q.q.q.",
"q.q.q.q.q.q.q.q.q.q.q.q.q.q.q.q.q.q.q.q.q.q.q.q.q.q.q.q.q.q.q.q.",
"q.q.q.q.q.q.q.q.q.q.q.q.q.q.q.q.q.q.q.q.q.q.q.q.q.q.q.q.q.q.q.q.",
"q.q.q.q.q.q.q.q.q.q.q.q.q.q.q.q.q.q.e.5.4.q.q.q.q.q.q.q.q.q.q.q.",
"q.q.q.q.q.q.q.q.q.q.q.q.q.q.q.q.q.-.s f a +.#.4.q.q.q.q.q.q.q.q.",
"q.q.q.q.q.q.q.q.q.q.q.q.q.q.q.q.4.H M j j n c X.4.q.q.q.q.q.q.q.",
"q.q.q.q.q.q.q.q.q.q.q.q.q.q.q.q.*.m A A C A M c X.4.q.q.q.q.q.q.",
"q.q.q.q.7.q.q.q.q.q.q.q.q.q.q.4.H V A A A A A M l o.4.q.q.q.q.q.",
"q.q.q.q.7.q.q.q.q.q.q.q.q.q.q.-.m A A A A A A A B x o.e.7.q.q.q.",
"q.q.q.q.q.q.q.q.q.q.q.q.q.q.e.Y Z A A A A A A A C j s e.q.q.q.q.",
"q.q.q.q.q.q.q.q.q.q.q.q.q.e.y.h.Q ! ! D A A A A v $.e.q.q.q.q.q.",
"q.q.q.q.q.q.q.q.q.q.q.q.q.;.i.x.c.b.v.f.S A C v -.7.q.q.q.q.q.q.",
"q.q.q.q.q.q.q.q.q.q.7.6.7.*.j.j.i.l.l.z.S C v $.q.q.q.q.q.q.q.q.",
"q.q.q.q.q.q.q.q.q.q.>.%.%.p d R g d u.g.Z m @.7.q.q.q.q.q.q.q.q.",
"q.q.q.q.q.q.q.q.q.q.7.6.w.o.I I h w q b N F e.q.q.q.q.q.q.q.q.q.",
"q.q.q.q.q.q.q.q.q.q.q.3.O.P ; - 9 0 8 5 z @.q.q.q.q.q.q.q.q.q.q.",
"q.q.q.q.q.q.q.q.q.q.3.O.h K $ * t.g h 7 u  .7.q.q.q.q.q.q.q.q.q.",
"q.q.q.q.q.q.q.q.q.3.O.t h 9 = U k.k.E 3 | 5.7.q.q.q.q.q.q.q.q.q.",
"q.q.q.q.q.q.q.q.3.O.g e e e 0 e W a.< @ &.5.q.q.q.q.q.q.q.q.q.q.",
"q.q.q.q.q.q.q.e.O.t e e e e 0 0 h F # : &.q.q.q.q.q.q.q.q.q.q.q.",
"q.q.q.q.q.q.3.O.t h 0 0 0 0 0 0 w 1 X ~ &.q.q.q.q.q.7.q.q.q.q.q.",
"q.q.q.q.q.3.O.g h 0 0 0 0 0 0 6 1 k u } 5.q.q.q.q.q.q.q.q.q.q.q.",
"q.q.q.7.3.O.g h 0 0 0 e h h w ) ` { '  .q.q.q.q.q.q.q.q.q.q.q.q.",
"q.q.1.( i P L 9 0 0 0 0 h 7 ) 8.r.9.[ 4.q.q.q.q.q.q.q.q.q.q.q.q.",
"q.e./ O P ; % G y 0 0 0 6 ) <.0.9.,. .q.q.q.q.q.q.q.q.q.q.q.q.q.",
"q.5...r L & * p.s.g e 6   ^ _ ] [  .7.q.q.q.q.q.q.q.q.q.q.q.q.q.",
"q.q.:.i 4 G J d.k.d.= o . . k o 2.q.q.q.q.q.q.q.q.q.q.q.q.q.q.q.",
"q.q.7.3.=.u 4 8 T < # + *.*.*.;.5.q.q.q.q.q.q.q.q.q.q.q.q.q.q.q.",
"q.q.q.q.q.3.=.u 2 > , :.q.q.q.q.q.q.q.q.q.q.q.q.q.q.q.q.q.q.q.q.",
"q.q.q.q.q.q.5.3.1.;.:.q.q.q.q.q.q.q.q.q.q.q.q.q.q.q.q.q.q.q.q.q.",
"q.q.q.q.q.q.q.q.q.q.q.q.q.q.q.q.q.q.q.q.q.q.q.7.q.q.q.q.q.q.q.q.",
"q.q.q.q.q.q.q.q.q.q.q.q.q.q.q.q.q.q.q.q.q.q.q.q.q.q.q.q.q.q.q.q."
};
