/* XPM */
static char *bart_left[] = {
/* columns rows colors chars-per-pixel */
"32 31 135 2 ",
"   c #646D59",
".  c #725D68",
"X  c #5A616F",
"o  c #51796F",
"O  c #4A7D74",
"+  c #557175",
"@  c #8A7F2F",
"#  c #9F3E4B",
"$  c #A67041",
"%  c #6C8A5F",
"&  c #7C8C56",
"*  c #798B58",
"=  c #5F8B66",
"-  c #5A8E75",
";  c #679867",
":  c #7C9763",
">  c #7D9C67",
",  c #678A74",
"<  c #699277",
"1  c #6CA362",
"2  c #75A569",
"3  c #77BA60",
"4  c #78BB60",
"5  c #75B868",
"6  c #69A078",
"7  c #76B87A",
"8  c #7BC163",
"9  c #A89719",
"0  c #BDA008",
"q  c #BFAC16",
"w  c #998D26",
"e  c #88883E",
"r  c #918C35",
"t  c #94943E",
"y  c #99993B",
"u  c #A69A24",
"i  c #A49C2A",
"p  c #ADA124",
"a  c #B6B32F",
"s  c #B9B52B",
"d  c #A9AB38",
"f  c #CAA900",
"g  c #D2BC0E",
"h  c #C1B622",
"j  c #C3BA20",
"k  c #DAC30C",
"l  c #DFC80B",
"z  c #D5C210",
"x  c #D0C018",
"c  c #D9D61A",
"v  c #E0C100",
"b  c #ECCD00",
"n  c #E2CA0A",
"m  c #EED202",
"M  c #F3D600",
"N  c #F6DA01",
"B  c #F9DD00",
"V  c #FEE300",
"C  c #F4E308",
"Z  c #858A44",
"A  c #92844F",
"S  c #859351",
"D  c #8EA356",
"F  c #A0A842",
"G  c #A5D446",
"H  c #85D26B",
"J  c #8AD469",
"K  c #90D66C",
"L  c #8BDD73",
"P  c #90E979",
"I  c #377D91",
"U  c #2B5EA6",
"Y  c #315EA5",
"T  c #2060B7",
"R  c #4F7080",
"E  c #437C8B",
"W  c #0D7BD6",
"Q  c #319F9E",
"!  c #1D94B4",
"~  c #368EA5",
"^  c #2198AE",
"/  c #2197B0",
"(  c #2097B8",
")  c #3A90B8",
"_  c #3C99BB",
"`  c #3CA6A9",
"'  c #5F9287",
"]  c #50908E",
"[  c #4C8D95",
"{  c #478798",
"}  c #4B8498",
"|  c #4D949C",
" . c #549399",
".. c #649484",
"X. c #5FA099",
"o. c #5487A6",
"O. c #4A95A1",
"+. c #4B99AC",
"@. c #519BA6",
"#. c #519DA9",
"$. c #4799B6",
"%. c #499EB3",
"&. c #439CBD",
"*. c #43A0BE",
"=. c #49A0B8",
"-. c #4FD4A2",
";. c #118ECF",
":. c #238FC3",
">. c #13A1C8",
",. c #0BA2DC",
"<. c #08ADD9",
"1. c #3FA3CB",
"2. c #2BB2CC",
"3. c #3DA6D2",
"4. c #3DA9D4",
"5. c #3BADDB",
"6. c #3AB0DF",
"7. c #049FE9",
"8. c #04BAEB",
"9. c #00ACFF",
"0. c #00B2FE",
"q. c #00BBFE",
"w. c #39AFE0",
"e. c #3AB2E1",
"r. c #419FC1",
"t. c #41A4C9",
"y. c #0ECBEB",
"u. c #00C4FE",
"i. c #00C8FF",
"p. c #96D582",
"a. c #A0CC98",
"s. c #9DEB88",
"d. c #A0EB8B",
"f. c #A9E594",
"g. c #B9F1A9",
/* pixels */
"e.e.e.e.e.e.e.e.e.e.e.e.e.e.e.e.e.e.e.e.e.e.e.e.e.e.e.e.e.e.e.e.",
"e.e.e.e.e.e.e.e.e.e.e.e.e.e.e.e.e.e.e.e.e.e.e.e.e.e.e.e.e.e.e.e.",
"e.e.e.e.e.e.e.e.e.e.e.e.e.e.e.e.e.e.e.e.e.e.e.e.e.e.e.e.e.e.e.e.",
"e.e.e.e.e.e.e.e.e.e.e.e.e.e.e.e.e.e.e.e.e.e.w.4.e.e.e.e.e.e.e.e.",
"e.e.e.e.e.e.e.e.e.e.e.e.e.e.e.e.e.e.e.e.e.e.#.: $.4.w.e.e.e.e.e.",
"e.e.e.e.e.e.e.e.e.e.e.e.e.e.e.e.e.e.e.e.e.#.a k y S +.w.e.e.e.e.",
"e.e.e.e.e.e.e.e.e.e.e.e.e.e.e.e.e.e.e.6.#.s N B V g Z #.w.e.e.e.",
"e.e.e.e.3.1.6.e.e.e.e.e.e.e.e.e.e.e.t...s V V m M B k * t.e.e.e.",
"e.e.e.*.< 6 =.6.6.6.e.e.e.e.e.e.e.w.' z V V V N b V N p  .e.e.e.",
"e.e.4.- H P 7 %.6.e.e.e.e.e.e.e.e.+.t m V V V N g M V k * t.e.e.",
"e.e.r.; f.s.P ..+.1.6.6.e.e.e.e.3.S m V V V V V N b N m i #.e.e.",
"e.e.[ 3 d.g.s.L % * X.*.e.e.e.t.> k V V V V V V V B M v i #.e.e.",
"e.e.[ 4 P s.g.p.t q j S &.w.e. .z V M b V V V V V N h : ' t.e.e.",
"e.e._ ; L P f.a.R t l n F &.e.&.d V B B V V V N h : +.5.w.e.e.e.",
"e.e.4.- H P P H I Z @ g B d { ) < n V V V N n D +.5.e.e.e.e.e.e.",
"e.e.e.o.A K P 8 + 0 r   j c ` ;.E x V V V a ..t.e.w.e.e.e.e.e.e.",
"e.e.e.$.# $ K L 2 u R T :.2.y.q.,.J C V s @.5.e.e.e.e.e.e.e.e.e.",
"e.e.e.w.o.. ; 8 L : Y W 0.9.q.q.0.y.-.G < 5.e.6.e.e.e.e.e.e.e.e.",
"e.e.e.e.e.5.&.] 5 2 U 7.u.0.9.0.u.i.i.8.~ 6.e.e.e.e.e.e.e.e.e.e.",
"e.e.e.e.e.e.e.5.| 1 - ,.i.i.u.u.i.i.i.>._ e.e.e.e.e.e.e.e.e.e.e.",
"e.e.e.e.e.e.e.e.5.O.o ! u.i.i.i.i.i.u.( 1.6.e.e.e.e.e.e.e.e.e.e.",
"e.e.e.e.e.e.e.e.e.e.1.I <.u.i.i.i.8.Q % t.6.e.e.e.e.e.e.e.e.e.e.",
"e.e.e.e.e.e.e.e.e.e.6.~ X I ^ / / O 9 w &.e.e.e.e.e.e.e.e.e.e.e.",
"e.e.e.e.e.e.e.e.e.e.e.5.o.+ = = } e f Z 1.6.e.e.e.e.e.6.e.e.e.e.",
"e.e.e.e.e.e.e.e.e.e.e.e.e.6.%.| , 9 0 & 4.e.e.e.e.e.e.e.e.6.e.e.",
"e.e.e.e.e.e.e.e.e.e.e.e.e.e.6.6.*. ., @.6.e.e.e.e.e.e.e.e.e.e.e.",
"e.e.e.e.e.e.e.e.e.e.e.e.e.e.e.e.e.e.6.6.6.e.e.e.e.e.e.e.e.e.e.e.",
"e.e.e.e.e.e.e.e.e.e.e.e.e.6.e.e.e.e.e.e.6.e.e.e.e.e.e.e.e.e.e.e.",
"e.e.e.e.e.e.e.e.e.e.e.e.e.e.e.e.e.e.e.e.e.e.e.e.e.e.e.e.e.e.e.e.",
"e.e.e.e.e.e.e.e.e.e.e.e.e.e.e.e.e.e.e.e.e.e.e.e.6.e.e.e.e.e.e.e.",
"e.e.e.e.e.e.e.e.e.e.e.e.e.e.e.e.e.e.e.e.e.e.e.e.e.e.e.e.e.e.e.e."
};
