/* XPM */
static char *bart_up[] = {
/* columns rows colors chars-per-pixel */
"32 32 137 2 ",
"   c #3F7777",
".  c #897C2D",
"X  c #7C8949",
"o  c #7E9A4F",
"O  c #68885C",
"+  c #778E54",
"@  c #7E9550",
"#  c #74B25D",
"$  c #588975",
"%  c #5B9371",
"&  c #5D9B74",
"*  c #6B8364",
"=  c #64936C",
"-  c #7B9562",
";  c #74956D",
":  c #628575",
">  c #6B8F71",
",  c #6E9575",
"<  c #609A79",
"1  c #6AA363",
"2  c #72AF62",
"3  c #7FAC60",
"4  c #75B765",
"5  c #7BB969",
"6  c #7DBC72",
"7  c #B89F0C",
"8  c #AE9A18",
"9  c #B6A61F",
"0  c #8F862C",
"q  c #9C8C22",
"w  c #9B9935",
"e  c #9F9D36",
"r  c #A59928",
"t  c #A3963C",
"y  c #ADA72F",
"u  c #B2A827",
"i  c #B5AD29",
"p  c #BCB327",
"a  c #A4A136",
"s  c #D3BD0E",
"d  c #CBB711",
"f  c #CCBB16",
"g  c #CCBE1B",
"h  c #DABE11",
"j  c #9DC13F",
"k  c #D6C10F",
"l  c #DFC410",
"z  c #E3CB07",
"x  c #EBCD01",
"c  c #E2CB09",
"v  c #ECD104",
"b  c #F3D601",
"n  c #F5D901",
"m  c #FADD00",
"M  c #EEE30B",
"N  c #FFE300",
"B  c #849143",
"V  c #889E4E",
"C  c #939942",
"Z  c #889B56",
"A  c #909F69",
"S  c #80BF6D",
"D  c #90CD5C",
"F  c #96D756",
"G  c #99D958",
"H  c #82C76E",
"J  c #87D86C",
"K  c #87D071",
"L  c #88D474",
"P  c #8CDD74",
"I  c #8EE475",
"U  c #90E779",
"Y  c #90E879",
"T  c #3B7288",
"R  c #2D7497",
"E  c #1D7DAD",
"W  c #1D6CBA",
"Q  c #496D80",
"!  c #45778C",
"~  c #507881",
"^  c #1A7DC2",
"/  c #2E9295",
"(  c #1E8DA9",
")  c #1B94B3",
"_  c #358FAD",
"`  c #3C96BC",
"'  c #3FA8A6",
"]  c #37A1A9",
"[  c #558587",
"{  c #5E9983",
"}  c #50908F",
"|  c #498896",
" . c #528E97",
".. c #4E9394",
"X. c #519393",
"o. c #579897",
"O. c #619A8E",
"+. c #57AE8D",
"@. c #52B89E",
"#. c #4D93A4",
"$. c #4994AC",
"%. c #549DA6",
"&. c #4599B7",
"*. c #479BB7",
"=. c #3BCEAC",
"-. c #3CD3B0",
";. c #1C97C6",
":. c #0999D2",
">. c #1090D0",
",. c #3F9EC6",
"<. c #07B1DF",
"1. c #3EA2CA",
"2. c #3FA8CD",
"3. c #3EA6D0",
"4. c #3CAAD6",
"5. c #3BACDA",
"6. c #3BB1DD",
"7. c #0396EB",
"8. c #05B5E6",
"9. c #14B8E0",
"0. c #01A7F8",
"q. c #00ADFD",
"w. c #00B6FF",
"e. c #00BBFD",
"r. c #3AB2E1",
"t. c #419DC1",
"y. c #41A1C4",
"u. c #41A8C7",
"i. c #11CDE2",
"p. c #00C4FE",
"a. c #00C8FF",
"s. c #9DEB88",
"d. c #A3EB8F",
"f. c #A4ED90",
"g. c #ACD0A1",
"h. c #B7F0A7",
"j. c #BAF2AB",
/* pixels */
"r.r.r.r.r.r.r.r.r.r.r.r.r.r.r.r.r.r.r.r.r.r.r.r.r.r.r.r.r.r.r.r.",
"r.r.r.r.r.r.r.r.r.r.r.6.r.r.r.r.r.r.r.r.r.r.r.r.r.r.r.r.r.r.r.r.",
"r.r.r.r.r.r.r.r.r.r.r.r.r.r.r.r.r.r.r.r.r.r.r.r.r.r.r.r.r.r.r.r.",
"r.r.r.r.r.r.r.r.r.r.r.r.r.r.r.r.r.3.5.5.3.4.3.r.r.r.r.r.r.r.r.r.",
"r.r.r.r.r.r.6.r.r.r.r.r.r.r.r.r.1.- { o.- > ; 4.r.r.r.r.r.r.r.r.",
"r.r.r.r.r.r.r.r.r.r.r.r.r.r.5.$.* 9 g g s h p  .&.5.r.r.r.r.r.r.",
"r.r.r.r.r.r.r.r.6.r.r.r.r.r.{ w d v N N N N v r e %.r.r.r.r.r.r.",
"r.r.r.r.r.r.r.r.1.#.$.2.6.4.> z n m N N N N N n e 1.r.r.r.r.r.r.",
"r.r.r.r.r.r.r.t.& 5 6 < +.@.o.i b x x b b n x N C 3.r.r.r.r.r.r.",
"r.r.r.r.r.r.1.& K U Y L O.u.y.e b n x x n n v m C 3.r.r.r.r.r.r.",
"r.r.r.r.r.4.$ H h.s.Y P + ~ t.Z n N N m m N N v - 4.r.r.r.r.r.r.",
"r.r.r.r.r.&.1 I f.j.s.S 0 . : ~ k N N N N N N f #.r.r.r.r.r.r.r.",
"r.r.r.r.r.| # I U d.j.S q 7 + O k N N N N N N f #.r.r.r.r.r.r.r.",
"r.6.r.r.r.y.= J U U d.g.t d X C v N N N N N N z - 4.r.r.r.r.r.r.",
"r.r.r.r.r.5...4 I U U d.A 7 . 0 l N N N N N N h , 5.r.r.r.r.r.r.",
"r.r.r.r.r.r.5...4 I U U 3 8 C ;.D N N N N N m y &.r.r.r.r.r.r.r.",
"r.r.r.r.r.r.r.4.X.4 I U L B ] p.i.G N N N m p %.5.r.r.r.r.r.r.r.",
"r.r.r.r.r.r.r.r.5.X.4 I P = ^ 0.w.9.F M M j X.r.r.r.r.r.r.r.r.r.",
"r.r.r.r.r.r.r.r.r.5.X.4 L Q W 7.e.e.i.-.=./ ,.r.r.r.r.r.r.r.r.r.",
"r.r.r.r.r.r.r.r.r.r.4.X.2 $ W e.a.a.a.p.0.E ! 3.r.r.r.r.r.r.r.r.",
"r.r.r.r.r.r.r.r.r.r.r.4.X.O R p.a.a.p.e.q.0.R [ u.r.r.r.r.r.r.r.",
"r.r.r.r.r.r.r.r.r.r.r.r.4.|   8.a.a.p.q.e.e.>.$ o.5.r.r.r.r.r.6.",
"r.r.r.r.r.r.r.r.r.r.r.r.r.5.| ) p.a.a.0.;.' ;.T *.5.r.r.r.r.r.r.",
"r.r.r.r.r.r.r.r.r.r.r.r.r.r.4._ ( <.8.:.@ v V ` r.r.r.r.r.r.r.r.",
"r.r.r.r.r.r.r.r.r.r.r.6.r.r.r.5.T $ & % r N t t.r.r.r.r.r.r.r.r.",
"r.r.r.r.r.r.r.r.r.r.r.r.r.r.r.r.5.X.# H a N a t.r.r.r.r.r.r.r.r.",
"r.r.r.r.r.r.6.r.r.r.r.r.r.r.r.r.6.6.} o k N y t.r.r.r.r.r.r.r.r.",
"r.r.r.r.r.r.r.r.r.r.r.r.r.r.r.r.6.r.1.C l c u o.r.r.r.r.r.r.r.r.",
"r.r.r.r.r.r.r.r.r.r.r.r.r.r.r.r.r.r.r.%., , #.5.r.r.r.r.r.r.r.r.",
"r.r.r.r.r.r.r.r.r.r.r.r.r.r.r.r.r.r.r.r.4.5.r.r.r.r.r.r.r.r.r.r.",
"r.r.r.r.r.r.r.r.r.r.r.r.r.r.r.r.r.r.r.r.r.r.r.r.r.r.r.r.r.r.r.r.",
"r.r.r.r.r.r.r.r.r.r.r.r.r.r.r.r.r.r.r.r.r.r.r.r.r.r.r.r.r.r.r.r."
};
