/* XPM */
static char *bart_wall3[] = {
/* columns rows colors chars-per-pixel */
"32 32 234 2 ",
"   c #4A5D39",
".  c #5A5036",
"X  c #7E4539",
"o  c #78473E",
"O  c #396B40",
"+  c #277A47",
"@  c #287947",
"#  c #3E6F6B",
"$  c #67595A",
"%  c #43605A",
"&  c #586873",
"*  c #576E7C",
"=  c #62656E",
"-  c #97351F",
";  c #96361F",
":  c #9C341B",
">  c #9E341B",
",  c #98361F",
"<  c #A0351B",
"1  c #8D3926",
"2  c #8C3A27",
"3  c #873D2D",
"4  c #943520",
"5  c #923822",
"6  c #058D51",
"7  c #058E51",
"8  c #058F52",
"9  c #068F52",
"0  c #0C8E5D",
"q  c #14855F",
"w  c #029251",
"e  c #039353",
"r  c #059052",
"t  c #049152",
"y  c #059152",
"u  c #069052",
"i  c #059253",
"p  c #059353",
"a  c #039453",
"s  c #039652",
"d  c #039554",
"f  c #039854",
"g  c #019B55",
"h  c #039A54",
"j  c #049A55",
"k  c #019C55",
"l  c #019F56",
"z  c #029F56",
"x  c #039E57",
"c  c #069C54",
"v  c #069F54",
"b  c #079459",
"n  c #0F955E",
"m  c #069C5A",
"M  c #079C5B",
"N  c #059F5B",
"B  c #0A995E",
"V  c #0B995E",
"C  c #01A057",
"Z  c #02A057",
"A  c #02A157",
"S  c #02A357",
"D  c #04A257",
"F  c #01A857",
"G  c #00A957",
"H  c #01A358",
"J  c #03A259",
"K  c #03A25A",
"L  c #04A159",
"P  c #04A259",
"I  c #05A05A",
"U  c #04A15B",
"Y  c #01A458",
"T  c #02A458",
"R  c #02A558",
"E  c #00A758",
"W  c #02A658",
"Q  c #03A55A",
"!  c #00A959",
"~  c #01A959",
"^  c #02A959",
"/  c #00AA58",
"(  c #00AB58",
")  c #00AA59",
"_  c #01AA5A",
"`  c #00AB5A",
"'  c #00AC58",
"]  c #00AD58",
"[  c #00AC59",
"{  c #00AE59",
"}  c #00AF59",
"|  c #00AC5A",
" . c #00AD5A",
".. c #00AD5B",
"X. c #00AE5A",
"o. c #00AF5A",
"O. c #00AE5B",
"+. c #00AF5B",
"@. c #00B05A",
"#. c #00B15A",
"$. c #00B05B",
"%. c #00B15B",
"&. c #00B15C",
"*. c #0E8E61",
"=. c #1D856F",
"-. c #16896A",
";. c #158C69",
":. c #178F6D",
">. c #188E6F",
",. c #0F9263",
"<. c #0F9363",
"1. c #0B9760",
"2. c #0C9560",
"3. c #0E9561",
"4. c #0C9661",
"5. c #0C9662",
"6. c #0A9860",
"7. c #0A9A60",
"8. c #0A9A61",
"9. c #139169",
"0. c #13926A",
"q. c #13936A",
"w. c #169069",
"e. c #16906A",
"r. c #10966A",
"t. c #17906E",
"y. c #11966D",
"u. c #198E71",
"i. c #1C8D79",
"p. c #1E8D7D",
"a. c #1F8E7F",
"s. c #169071",
"d. c #1B907A",
"f. c #1C9380",
"g. c #208982",
"h. c #218D82",
"j. c #208E83",
"k. c #238D86",
"l. c #29878B",
"z. c #238E89",
"x. c #248C88",
"c. c #278E8F",
"v. c #209186",
"b. c #219189",
"n. c #259391",
"m. c #279192",
"M. c #249592",
"N. c #249593",
"B. c #29929A",
"V. c #2B939D",
"C. c #2E93A3",
"Z. c #2B94A0",
"A. c #2A97A2",
"S. c #2D94A3",
"D. c #2E94A4",
"F. c #2F94A5",
"G. c #2D97A7",
"H. c #2B98A5",
"J. c #3098AE",
"K. c #3298B2",
"L. c #3299B3",
"P. c #339BB7",
"I. c #329CB7",
"U. c #349BB9",
"Y. c #359CBA",
"T. c #359CBB",
"R. c #369BBD",
"E. c #349DBC",
"W. c #359EBF",
"Q. c #49829B",
"!. c #438DAB",
"~. c #428DAC",
"^. c #438EAD",
"/. c #428FAF",
"(. c #468DAC",
"). c #379EC2",
"_. c #369FC2",
"`. c #3E9BC0",
"'. c #34A2C3",
"]. c #37A0C4",
"[. c #35A2C5",
"{. c #38A0C5",
"}. c #39A3CC",
"|. c #3BA3CC",
" X c #38A4CC",
".X c #39A4CC",
"XX c #38A5CC",
"oX c #3AA6D0",
"OX c #3AA6D1",
"+X c #3AA7D2",
"@X c #3AA7D3",
"#X c #38A8D0",
"$X c #3AA8D4",
"%X c #3AA9D5",
"&X c #39AAD5",
"*X c #3BA9D6",
"=X c #3AAAD6",
"-X c #3AABD7",
";X c #3CA8D5",
":X c #39ACD7",
">X c #3AAAD8",
",X c #3AABD8",
"<X c #3AACD9",
"1X c #3AADD9",
"2X c #3AADDA",
"3X c #3AADDB",
"4X c #3BADDC",
"5X c #3AAEDC",
"6X c #3BAEDD",
"7X c #3BAFDD",
"8X c #3BAEDE",
"9X c #3BAFDE",
"0X c #3BAFDF",
"qX c #39B1DF",
"wX c #3AB0DE",
"eX c #3AB0DF",
"rX c #3BB0DF",
"tX c #3AB1DF",
"yX c #3BB0E0",
"uX c #3BB1E1",
"iX c #39B2E1",
"pX c #3AB2E1",
"aX c #3BB1E2",
"sX c #39B3E3",
"dX c #3AB2E2",
"fX c #3BB2E2",
"gX c #3AB3E2",
"hX c #3BB2E3",
"jX c #3AB3E3",
"kX c #3BB3E3",
"lX c #3AB4E3",
"zX c #39B4E4",
"xX c #3AB4E4",
"cX c #3BB4E5",
/* pixels */
"pXpXpXpXpXpXpXpXpXpXpXpXdXjXfX0XoX}.OXuXdXpXpXpXpXpXpXpXpXpXpXpX",
"pXpXpXpXpXpXpXpXpXpXjXjX1XW.I.k.t.9.s.G.2XdXpXpXpXpXpXpXpXpXpXpX",
"pXpXpXpXpXpXpXpXgXeX_.E.v.1.7./ { o.{ N N.5XpXpXpXpXpXpXpXpXpXpX",
"pXpXpXpXpXpXpXdX,XA.5.6.~ @.@.+.+.+.+.@.2.].cXjXpXpXpXpXpXpXpXpX",
"pXpXpXpXpXpXdX<Xb.I o.@.+.+.+.+.+.+.+.$.x l.L.P.8XdXpXpXpXpXpXpX",
"pXpXpXpXpXpXjXT.V #.+.+.+.+.+.+.+.+.+.+.E m M 8.h.'.dXpXpXpXpXpX",
"pXpXpXpXpXpXxX X-.) _ O.$.+.+.+.+.+.+.+.+.$.$.o.G d.&XdXpXpXpXpX",
"pXpXpXpXdX7X{.M.b 7 6 a Y | +.+.+.+.+.+.+.+.+.+.$.L D.hXpXpXpXpX",
"pXpXpXdX:Xn.3.Q +.~ | C e ` +.+.+.+.+.+.+.+.+.+.+.' p.4XpXpXpXpX",
"pXpXpXfXV.J @.$.+.+.+.+.+.+.+.+.+.+.+.+.+.+.+.$.$./ j.6XpXpXpXpX",
"pXpXpXaXc.F +.+.+.+.+.+.+.+.+.+.+.+.+.+.+.+.l Z S w g.9XpXpXpXpX",
"pXpXpXdX[.y. .+.+.+.+.+.+.+.+.+.+.+.+.+.+.+.! i u h z.0XpXpXpXpX",
"pXpXpXeXJ.r.X.+.+.+.+.+.+.+.+.+.+.+.+.+.+.+.+.+.$.P F.kXpXpXpXpX",
"pXpXgX@X;.] +.+.+.+.+.+.+.+.+.+.+.+.+.+.+.+.+.+.} 0.XXgXpXpXpXpX",
"pXpXpX4Xa.( +.+.+.+.+.+.+.+.+.$.$. ...+.+.` O.$.U Z.uXpXpXpXpXpX",
"pXpXpXhXS.L $.+.+.+.+.+.+.+.O.Z R y j O.R e | $.K Z.fXpXpXpXpXpX",
"pXpXpXkXJ.m $.$.+.| +.+.+.+.+.z 9 p r 7 8 H +.$.T B.uXpXpXpXpXpX",
"pXpXpXtXK.0 k A g d  .+.+.+.+.$.+.$...~ O.+.+.+.X.q..XgXpXpXpXpX",
"pXpXjXY.<.| Z t f ` +.+.+.+.+.+.+.+.+.+.+.+.+.+.%.n {.jXpXpXpXpX",
"pXpXjXU.B } %.o. .+.+.$.+.+.+.+.$.$.+.+.+.+.| X.W f.=XdXpXpXpXpX",
"pXpXpXwXH.u.4.,.*.] ' c ^ &.&.O.D v [ o.o.o.s q m.#XgXpXpXpXpXpX",
"pXpXpXpXyX>X_.).C.>.i.%   @ + O . # =.w.e.:.x.R.yXgXpXpXpXpXpXpX",
"pXpXpXpXpXdXjXjXuX%X3X(.3 - ; 4 = ;X*X+X@X$XrXgXpXpXpXpXpXpXpXpX",
"pXpXpXpXpXpXpXpXpXgXjX|.o < < X `.lXdXgXgXgXpXpXpXpXpXpXpXpXpXpX",
"pXpXpXpXpXpXpXpXpXpXdX-X$ > , * qXpXpXpXpXpXpXpXpXpXpXpXpXpXpXpX",
"pXpXpXpXpXpXpXpXpXpXpXiX& : 2 ^.zXpXpXpXpXpXpXpXpXpXpXpXpXpXpXpX",
"pXpXpXpXpXpXpXpXpXpXpXsXQ.5 2 /.xXpXpXpXpXpXpXpXpXpXpXpXpXpXpXpX",
"pXpXpXpXpXpXpXpXpXpXpXzX~.1 2 /.xXpXpXpXpXpXpXpXpXpXpXpXpXpXpXpX",
"pXpXpXpXpXpXpXpXpXpXpXzX!.1 2 /.xXpXpXpXpXpXpXpXpXpXpXpXpXpXpXpX",
"pXpXpXpXpXpXpXpXpXpXpXzX!.1 2 /.xXpXpXpXpXpXpXpXpXpXpXpXpXpXpXpX",
"pXpXpXpXpXpXpXpXpXpXpXzX!.1 2 /.xXpXpXpXpXpXpXpXpXpXpXpXpXpXpXpX",
"pXpXpXpXpXpXpXpXpXpXpXzX!.1 2 /.xXpXpXpXpXpXpXpXpXpXpXpXpXpXpXpX"
};
