/* XPM */
static char *bart_exit[] = {
/* columns rows colors chars-per-pixel */
"31 32 138 2 ",
"   c #23153C",
".  c #2C133F",
"X  c #312E37",
"o  c #2E3C3C",
"O  c #343235",
"+  c #2B1441",
"@  c #33174C",
"#  c #32184D",
"$  c #391F4F",
"%  c #360D56",
"&  c #380B5F",
"*  c #2F1A50",
"=  c #331A50",
"-  c #3A1458",
";  c #372E51",
":  c #3A2957",
">  c #36265D",
",  c #362B5F",
"<  c #3C0B64",
"1  c #362464",
"2  c #333A60",
"3  c #363D75",
"4  c #4A0F6F",
"5  c #401361",
"6  c #4A0F71",
"7  c #452968",
"8  c #422C6D",
"9  c #4E316F",
"0  c #422E71",
"q  c #482E79",
"w  c #51267F",
"e  c #453075",
"r  c #4B3475",
"t  c #49317E",
"y  c #354645",
"u  c #37445F",
"i  c #3B416E",
"p  c #2F4876",
"a  c #2C447B",
"s  c #2E4F7D",
"d  c #3B467F",
"f  c #304B7A",
"g  c #38687C",
"h  c #4E4E4D",
"j  c #554068",
"k  c #594A6B",
"l  c #5B536E",
"z  c #4A6975",
"x  c #6B696F",
"c  c #6E6B70",
"v  c #6E707B",
"b  c #71707F",
"n  c #552D85",
"m  c #5C2C8E",
"M  c #54378D",
"N  c #5D3190",
"B  c #64339A",
"V  c #2E4881",
"C  c #3B4680",
"Z  c #375185",
"A  c #37528A",
"S  c #38558A",
"D  c #39588E",
"F  c #3C798E",
"G  c #2C7D9C",
"H  c #3E7990",
"J  c #307F9B",
"K  c #47418B",
"L  c #4C4995",
"P  c #75638A",
"I  c #707C81",
"U  c #7C6F94",
"Y  c #6C44B1",
"T  c #827393",
"R  c #974CED",
"E  c #A053F4",
"W  c #A455FE",
"Q  c #A859FF",
"!  c #2D82A4",
"~  c #2F8AAE",
"^  c #2E8CB2",
"/  c #318EB7",
"(  c #338EBA",
")  c #2D93B9",
"_  c #3090B7",
"`  c #3191B8",
"'  c #6F858D",
"]  c #7C8185",
"[  c #2D9DC5",
"{  c #3297C0",
"}  c #3F94C6",
"|  c #3299C2",
" . c #389ACA",
".. c #2FA0C9",
"X. c #34A1CC",
"o. c #35A7D4",
"O. c #35AAD5",
"+. c #38ABD6",
"@. c #36ADD9",
"#. c #37B0DD",
"$. c #38B1DE",
"%. c #37B1E1",
"&. c #3AB3E2",
"*. c #4AA1CE",
"=. c #56B0D6",
"-. c #5BB6DA",
";. c #44B6E3",
":. c #4BB9E4",
">. c #53BCE5",
",. c #59BEE6",
"<. c #63BFE2",
"1. c #5DC0E6",
"2. c #62C2E7",
"3. c #6BC5E9",
"4. c #71C7E9",
"5. c #74C9EA",
"6. c #91928D",
"7. c #888B90",
"8. c #8B969A",
"9. c #979693",
"0. c #989795",
"q. c #999896",
"w. c #94989B",
"e. c #979EA1",
"r. c #A6AAAA",
"t. c #A9ACAD",
"y. c #ADAFB3",
"u. c #B2B1B1",
"i. c #BCBCBC",
"p. c #C4C7C9",
"a. c #D7D4D4",
"s. c #D9D7D6",
"d. c gray90",
"f. c #E3E8E7",
"g. c #E8E9E7",
"h. c #E6EAEB",
"j. c #EBEBEB",
"k. c #F2F1F1",
/* pixels */
"&.&.&.&.&.&.&.&.&.&.&.&.&.&.&.&.&.&.&.&.&.&.&.&.&.&.&.&.&.&.&.",
"+.^ ~ ~ / ~ ~ / ~ ^ / ~ ~ / ~ ~ ^ ~ ^ ^ ~ ~ / ~ ~ ` ~ ~ ~ | &.",
"` , ] t.t.t.t.t.t.t.t.t.y.9.:   l t.t.t.t.t.t.t.t.t.t.r.k s $.",
"` q r.s.a.a.s.s.a.a.a.a.s.u.9 # P a.a.s.a.a.a.a.s.a.a.a.x A $.",
"` q $ g H H H H H H H H H g 7 # i F H H H H H F H H F u 5 A &.",
"` q < / &.&.&.&.&.&.&.&.&.| 0 @ D $.&.&.&.&.&.&.&.&.&.V 6 A $.",
"` q < / &.&.%.&.&.#.&.&.&.| 0 @ D $.&.$.&.&.&.&.&.&.&.V 6 S $.",
"` q < / &.;.&.&.3.;.&.&.&.| 0 @ D $.&.&.%.1.1.%.&.&.&.V 6 A $.",
"` q < / &.:.3.&.>.,.;.&.&.| 0 @ D $.&.&.:.2.;.>.3.&.&.V 4 S #.",
"` q < / &.&.,.5.&.;.:.&.&.{ 0 @ D $.&.&.>.@.>.5.;.&.&.V 4 S #.",
"` q < / &.&.$.>.:.;.&.&.&.{ 0 @ D $.&.$.&.:.,.;.#.&.#.V 4 S #.",
"` q < / &.&.&.$.,.<.&.&.&.{ 0 @ D $.$.&.;.3.&.&.&.&.&.V 6 S #.",
"` q < / &.&.&.$.$.;.>.&.&. .0 = D &.&.&.,.$.&.;.&.&.&.V 4 S $.",
"` q < / &.&.&.&.&.&.&.@.[ G 1 + f {  .&.&.&.&.$.&.&.&.V 4 S #.",
"` q < / &.&.&.&.&.&.&.J I 8.x X 7.8.z o.&.$.$.$.$.&.&.a 4 S $.",
"` q < ^ #.@.+.@.+.@.$.J i.k.u.h g.j.' ..@.@.#.@.@.#.#.a 4 S $.",
"` 0 % 3 d d d d d d C 2 i.j.y.h d.j.v 3 d d d d d d d 1 5 S #.",
"` M n B B B B B B B B 9 i.j.y.h d.g.b m B B B B B B B N m D #.",
"/ Y Q W W W W W Q W Q Y i.j.u.h f.f.T R W W W W W W W W E L #.",
"/ M w K L L L L L L L r i.j.u.h d.f.v M L L L L L L L q N D #.",
"` q & ~ @.O.+.o.@.O.@.G i.k.u.h g.j.' [ O.O.O.O.O.O.O.a 4 S #.",
"` q < / &.&.3.>.#.&.$.! ] e.v O w.w.z O.&.#.&.3.1.&.$.V 4 S #.",
"` q < / &.&.;.4.;.#.&.+.{ G > . p ) | $.&.&.2.2.#.%.%.V 4 S $.",
"` q < / &.&.&.;.1.>.&.$.&.| 8 @ D &.&.&.&.2.:.&.%.%.%.s 4 S $.",
"` 0 < ` &.&.&.&.;.,.;.&.&.| 0 @ D $.&.&.>.,.&.&.&.&.&.V 4 S $.",
"` q - _ &.&.&.&.&.;.:.&.&.| 0 @ D &.&.&.:.&.&.&.&.&.&.V 4 S $.",
"` q < ! X.X.X.X.o.[ X. .o.^ 8 @ Z X.X.X. .X.X.X.X.X.X.a 4 S $.",
"` q + ; y y y y y y y y y o 7 * ; y y y y y y y y y y X - S $.",
"` e c q.q.0.0.9.9.9.9.0.9.7.7 * l 6.9.9.0.0.9.0.0.0.9.6.j A $.",
"` t y.h.j.f.h.f.h.h.h.h.g.p.r * U g.j.f.h.f.f.h.f.f.f.f.P A $.",
"+.} =.<.<.<.2.<.<.<.<.<.<.-.} ( *.<.2.2.<.<.<.<.2.<.2.<.*.X.%.",
"&.&.&.%.%.%.%.&.%.%.$.$.$.$.&.&.&.%.&.#.%.%.%.&.&.#.%.%.&.&.%."
};
