/* XPM */
static char *bart_collectible[] = {
/* columns rows colors chars-per-pixel */
"32 32 164 2 ",
"   c #7A611D",
".  c #474134",
"X  c #4B5439",
"o  c #60502A",
"O  c #735C25",
"+  c #7D4E39",
"@  c #6F6526",
"#  c #77672A",
"$  c #6E6436",
"%  c #756E3A",
"&  c #4B4846",
"*  c #555C4B",
"=  c #625048",
"-  c #795545",
";  c #4F645A",
":  c #5B715C",
">  c #6E7145",
",  c #46676E",
"<  c #4B6E6C",
"1  c #4D706E",
"2  c #4C7073",
"3  c #5F7677",
"4  c #6A6E6F",
"5  c #9B760F",
"6  c #9F780D",
"7  c #8D6B1A",
"8  c #996D1D",
"9  c #967214",
"0  c #957C17",
"q  c #AA7F0A",
"w  c #A07514",
"e  c #A37914",
"r  c #885A2C",
"t  c #845B37",
"y  c #8D5239",
"u  c #975636",
"i  c #935438",
"p  c #985538",
"a  c #AC5B37",
"s  c #A65939",
"d  c #B45D37",
"f  c #B55E38",
"g  c #8D6324",
"h  c #8D612B",
"j  c #90692B",
"k  c #887527",
"l  c #857F3E",
"z  c #BF6138",
"x  c #C46237",
"c  c #C96437",
"v  c #865544",
"b  c #8F5A43",
"n  c #896A5C",
"m  c #927D6C",
"M  c #816579",
"N  c #9D6E7C",
"B  c #559347",
"V  c #58AE53",
"C  c #5BB45E",
"Z  c #6D9370",
"A  c #74A277",
"S  c #56C75A",
"D  c #5CD35A",
"F  c #5AE962",
"G  c #5EFE68",
"H  c #998816",
"J  c #94811D",
"K  c #AD810D",
"L  c #B98707",
"P  c #B38409",
"I  c #BD8A0B",
"U  c #AF9B0F",
"Y  c #AE891B",
"T  c #B08612",
"R  c #A29212",
"E  c #B6A40E",
"W  c #B7A719",
"Q  c #8E8E25",
"!  c #9D8B28",
"~  c #919224",
"^  c #A18F22",
"/  c #A89925",
"(  c #C78F06",
")  c #C48E0A",
"_  c #C89106",
"`  c #CC9205",
"'  c #D29604",
"]  c #D59905",
"[  c #DD9C02",
"{  c #D0BA08",
"}  c #C5B317",
"|  c #E5A202",
" . c #ECA601",
".. c #F4AB00",
"X. c #FAAF00",
"o. c #E0C902",
"O. c #ECD301",
"+. c #F5DB00",
"@. c #938E4E",
"#. c #B09256",
"$. c #9D8260",
"%. c #868877",
"&. c #3D7C89",
"*. c #44798C",
"=. c #4B7B89",
"-. c #567D8D",
";. c #467E93",
":. c #607F8B",
">. c #9D7083",
",. c #987C9D",
"<. c #3D89A2",
"1. c #3B8CAC",
"2. c #3A92B4",
"3. c #3997BC",
"4. c #4D8489",
"5. c #528483",
"6. c #45879C",
"7. c #5A8B9D",
"8. c #678A98",
"9. c #7F8E92",
"0. c #78929B",
"q. c #458BA9",
"w. c #4B90AB",
"e. c #4294B1",
"r. c #419BB9",
"t. c #3B9DC4",
"y. c #389EC9",
"u. c #3AA3CC",
"i. c #3AA6D1",
"p. c #3AA9D5",
"a. c #39AEDC",
"s. c #3AB0DF",
"d. c #3AB2E1",
"f. c #888B8B",
"g. c #808E92",
"h. c #89989C",
"j. c #B0879C",
"k. c #A3A693",
"l. c #B0B39E",
"z. c #AC81A5",
"x. c #94A1A5",
"c. c #9AA1A2",
"v. c #9FABAD",
"b. c #A5A8A1",
"n. c #A6AFAD",
"m. c #ADB7B9",
"M. c #B7BCBB",
"N. c #C995C4",
"B. c #CD97CA",
"V. c #CE98CC",
"C. c #D69CCA",
"Z. c #EDACEA",
"A. c #B8C0C1",
"S. c #C4CBCA",
"D. c #C7D0D0",
"F. c #D3DCDC",
"G. c #D9DFE1",
"H. c #DBE4E3",
"J. c #E2EBEB",
"K. c #ECF4F4",
"L. c #ECF5F6",
"P. c #F0F8F7",
"I. c #F4FDFD",
"U. c #F8FFFF",
/* pixels */
"d.d.d.d.d.d.d.d.d.d.d.d.d.d.d.d.d.d.d.d.d.d.d.d.d.d.d.d.d.d.d.d.",
"d.d.d.d.d.d.d.d.d.d.d.d.d.d.d.d.d.d.d.d.d.d.d.d.d.d.d.d.d.d.d.d.",
"d.d.d.d.d.d.d.d.d.d.d.d.d.d.d.d.d.d.d.d.d.d.d.d.d.d.d.d.d.d.d.d.",
"d.d.d.d.d.d.d.d.d.d.d.d.d.d.a.a.a.a.a.d.d.d.d.d.d.d.d.d.d.d.d.d.",
"d.d.d.d.d.d.d.d.d.d.d.a.i.6.1 1 < < =.t.a.d.d.d.d.d.d.d.d.d.d.d.",
"d.d.d.d.d.d.s.d.d.d.d.e.: ! P _ ` L T > 4.p.d.d.d.d.d.d.d.d.d.d.",
"d.d.d.d.d.d.d.d.d.d.e.l [ ( K | X.I P [ Y 4.p.d.d.d.d.d.d.d.d.d.",
"d.d.d.d.d.d.d.d.d.d.2 _ X.` 9 9 9 9 P .. .% y.d.d.d.d.d.d.d.d.d.",
"d.d.d.s.d.d.d.d.d.p.< ' X...' I I )  .X. .$ y.d.d.d.d.d.d.d.d.d.",
"d.d.d.d.d.d.d.d.p.5.# q ] ..X.X.X.X.X.| I k q.1.2.p.d.s.d.d.d.d.",
"d.d.d.d.d.d.d.d.2.k P r h 6 e e e e e 8 r g t - - ;.p.s.d.d.d.d.",
"d.d.d.d.d.d.d.d.1.j 7 s z i i i i i i s f + a c x b 6.a.d.d.d.d.",
"d.d.d.d.d.d.d.r.; 7 w u d c c c c c c z p y a x c d < a.d.d.d.d.",
"d.d.d.d.d.d.a.1 q 5 _ w g u i i i i i y y s x x a v ;.a.d.d.d.d.",
"d.d.d.d.d.d.p.; ] ` w 5   . . o O M z.>.v v v v N ,.q.a.d.d.d.d.",
"d.d.d.d.d.d.<.V ~ | ] I I I L P e j.Z.Z.B.N.N.N.Z.C.3 u.d.d.d.d.",
"d.d.d.d.d.d.&.S D Q ) ) ) ) I 0 U / $.N.V.V.V.V.N.#.~ 6.d.d.d.d.",
"d.d.d.d.d.t., S G D B X . @ R o.+.+.o.^ $ & J ! ^ { J &.d.d.d.d.",
"d.d.d.d.u.8.n.A C F V t i j 0 J 0 J J J H E O.O.W @.b.0.r.d.d.d.",
"d.d.d.d.3.9.P.G.M.Z * p c f s s s s s s h E } @.l.G.P.c.1.d.d.d.",
"d.d.d.d.3.9.P.U.I.H.c.= v i p p p p p p n %.k.H.P.I.I.x.1.d.d.d.",
"d.d.d.d.i.7.x.F.P.I.P.m.m & + . & & f.b.D.P.P.U.P.H.n.8.u.d.d.d.",
"d.d.d.d.d.i.q.8.x.G.P.I.J.M.m 4 M.A.L.I.I.U.I.H.v.8.w.u.d.d.d.d.",
"d.d.d.d.d.d.d.i.e.4.v.L.U.U.S.f.L.I.U.I.H.S.m.:.w.u.s.d.d.d.d.d.",
"d.d.d.d.d.d.d.d.s.p.w.x.S.P.G.f.J.K.A.n.0.*.6.u.a.d.d.d.d.d.d.d.",
"d.d.d.d.d.d.d.d.d.d.a.e.7.h.m.3 g.g.q.<.t.s.d.d.d.d.d.d.d.d.d.d.",
"d.d.d.d.d.d.d.d.d.d.d.d.i.2.-., 2.3.p.d.d.d.d.d.d.d.d.d.d.d.d.d.",
"d.d.d.d.d.d.d.d.d.d.d.d.d.d.p.p.d.d.d.d.d.d.d.d.d.d.d.d.d.d.d.d.",
"d.d.d.d.d.d.d.d.d.d.d.d.d.d.d.d.d.d.d.d.d.d.d.d.d.d.d.d.d.d.s.d.",
"d.d.d.d.d.d.d.d.d.d.d.d.d.d.d.d.d.d.d.d.d.d.d.d.d.d.d.d.d.d.d.d.",
"d.d.d.d.d.d.d.d.d.d.d.d.d.d.d.d.d.d.d.d.d.d.s.d.d.d.d.d.d.d.d.d.",
"d.d.d.d.d.d.d.d.d.d.d.d.d.d.d.d.d.d.d.d.d.d.d.d.d.d.d.d.d.d.d.d."
};
