/* XPM */
static char *bart_right[] = {
/* columns rows colors chars-per-pixel */
"32 32 165 2 ",
"   c #747A53",
".  c #477B7B",
"X  c #B02E44",
"o  c #AE364A",
"O  c #D72E42",
"+  c #D33244",
"@  c #8E4C5D",
"#  c #91495D",
"$  c #A54859",
"%  c #9F6643",
"&  c #A56643",
"*  c #778B59",
"=  c #7D9157",
"-  c #568373",
";  c #5C9D7E",
":  c #6D8665",
">  c #718969",
",  c #799869",
"<  c #6E8D76",
"1  c #619676",
"2  c #6A9579",
"3  c #69967C",
"4  c #719774",
"5  c #6AA468",
"6  c #70AB67",
"7  c #6DAA77",
"8  c #70A176",
"9  c #7FCA67",
"0  c #B59A0B",
"q  c #A7931E",
"w  c #BEA40A",
"e  c #BCB11E",
"r  c #968D2E",
"t  c #84873E",
"y  c #A19124",
"u  c #A39C2E",
"i  c #B3AA2E",
"p  c #B5B428",
"a  c #A9AA37",
"s  c #AEB538",
"d  c #B0B337",
"f  c #C5B112",
"g  c #C2B31B",
"h  c #CABA19",
"j  c #D0BC22",
"k  c #CFBD37",
"l  c #DBC40A",
"z  c #D7C716",
"x  c #E8CD05",
"c  c #E3CB09",
"v  c #EFD504",
"b  c #F1D500",
"n  c #F5D901",
"m  c #FADE00",
"M  c #FFE300",
"N  c #FFE614",
"B  c #FEE71D",
"V  c #E8DF22",
"C  c #FFE824",
"Z  c #FEE729",
"A  c #858B44",
"S  c #93A04B",
"D  c #8EAC55",
"F  c #97B353",
"G  c #819C60",
"H  c #82B864",
"J  c #83BF74",
"K  c #92C55E",
"L  c #87C166",
"P  c #8BCE67",
"I  c #85CF6C",
"U  c #83D06B",
"Y  c #9EDD62",
"T  c #85C479",
"R  c #8CD17B",
"E  c #8DE273",
"W  c #90E779",
"Q  c #92E979",
"!  c #DBD246",
"~  c #E4D343",
"^  c #FCE945",
"/  c #F3E156",
"(  c #DED77D",
")  c #37768D",
"_  c #3C7995",
"`  c #176CBE",
"'  c #1E7DB6",
"]  c #2478AD",
"[  c #317CAF",
"{  c #417E98",
"}  c #557E95",
"|  c #186EC1",
" . c #0E7FD0",
".. c #398B9B",
"X. c #1E9AB5",
"o. c #368DB6",
"O. c #3794B8",
"+. c #39BFAA",
"@. c #4F8287",
"#. c #48938E",
"$. c #599289",
"%. c #458597",
"&. c #538F97",
"*. c #4C9D90",
"=. c #579A9A",
"-. c #649584",
";. c #629A8C",
":. c #58A584",
">. c #59A198",
",. c #478DA5",
"<. c #4B95A7",
"1. c #4D9CAD",
"2. c #509AA6",
"3. c #519BA8",
"4. c #469AB7",
"5. c #429BBD",
"6. c #40BBAA",
"7. c #4BA1B7",
"8. c #72A4B9",
"9. c #1288CD",
"0. c #0E85D5",
"q. c #0A8CDB",
"w. c #1285DA",
"e. c #069FDD",
"r. c #3EA5CC",
"t. c #3EA7D0",
"y. c #3CAAD6",
"u. c #3BAEDC",
"i. c #3BB0DF",
"p. c #028EE3",
"a. c #1189E0",
"s. c #059AEC",
"d. c #018AF5",
"f. c #008CFB",
"g. c #04B8ED",
"h. c #01A5F5",
"j. c #00ACFF",
"k. c #39AFE1",
"l. c #3CA5E9",
"z. c #3AB2E1",
"x. c #429EC3",
"c. c #40A3CA",
"v. c #42A8CB",
"b. c #0AC8EE",
"n. c #00C2FF",
"m. c #82A483",
"M. c #89BD8C",
"N. c #ACAEAF",
"B. c #87C588",
"V. c #9FC697",
"C. c #9DD593",
"Z. c #A9DC9D",
"A. c #A6EC92",
"S. c #A8EE95",
"D. c #B4F1A2",
"F. c #F4E989",
"G. c #C7C5B3",
"H. c #EFE8A6",
"J. c #FFF7A8",
"K. c #FBF5BB",
"L. c #FEF9C8",
"P. c #E2E2E4",
"I. c #FDFBE3",
"U. c #FFFEF3",
"Y. c #F7F7F9",
/* pixels */
"z.z.z.z.z.z.z.z.z.z.z.z.z.z.z.z.z.z.z.z.z.z.z.z.z.z.z.z.z.z.z.z.",
"z.z.z.z.z.z.z.z.z.i.z.z.z.z.z.z.z.z.z.z.z.z.z.z.z.z.z.z.z.z.z.z.",
"z.z.z.z.i.z.z.z.z.z.u.u.u.z.z.z.z.z.z.z.z.z.z.z.z.z.z.z.z.z.z.z.",
"z.z.z.z.z.z.z.u.2.&.2 -.3 y.z.z.z.z.z.z.z.z.z.z.z.z.z.z.z.z.z.z.",
"z.z.z.z.z.z.i.&.u f g h g 1.z.z.z.z.z.z.z.z.z.z.z.z.z.z.z.z.z.z.",
"z.z.z.z.z.u.&.u c M M M n G y.z.z.z.z.z.z.z.z.z.z.z.z.z.z.z.z.z.",
"z.z.z.z.u.=.u c M M M M M h 7.z.z.t.u.k.z.z.z.z.z.z.z.z.z.z.z.z.",
"z.z.z.z.1.r l M M M M M M n = y.7.* 1.z.z.z.z.z.z.z.z.i.z.z.z.z.",
"z.z.z.z.y.=.d m M M M N Z B ( 8.: 0   v.z.z.z.z.z.z.z.z.z.z.z.z.",
"z.z.z.z.z.z.7.d m M N J.I.K.I.N.y w = 4.z.z.z.z.z.z.z.z.z.z.z.z.",
"z.z.z.z.z.z.z.7.d m Z I.Y.P.U.G.q A x.z.z.z.z.z.z.y.<.5.i.z.z.z.",
"z.z.z.z.z.z.z.z.2.g B K.U.L.^ k r $.z.z.z.z.z.z.y.>.T M.1.i.z.z.",
"z.z.z.z.z.z.z.z.y.= c Z ^ Z m x t ..r.k.k.z.z.u.=.R D.A.5 5.z.z.",
"z.z.z.z.z.z.z.z.u.4 V ^ C M v e ..e.X.o.r.k.y._ - C.A.E 5 5.z.z.",
"z.z.z.z.z.z.z.z.u.3 ~ H.F./ D X.g.s.p.q...2 < [ ` 8 W 9 $.i.z.z.",
"z.z.z.z.z.z.z.z.k.r., j V Y +.g.j.f.d.f.;.b ! l.| 5 P ; r.z.z.z.",
"z.z.z.z.z.z.z.z.z.i.o.#.6.b.n.j.f.f.f.f.%.i m. .{ H & @ y.z.z.z.",
"z.z.z.z.z.z.z.z.i.O.9.h.j.s.w.a.f.d. .' %.V.B.; 5   + o O.z.z.z.",
"z.z.z.z.z.z.z.z.v.o...:.s.[ a F 0.] - J Z.S.Q I ; } o # c.z.z.z.",
"z.z.z.z.z.z.z.z.k.<.p f ) = M z . - R D.A.Q I ; c.u.x.x.z.z.z.z.",
"z.z.z.z.z.z.z.z.y.G m i ,.;.z m s #.C.S.Q U ; v.z.z.z.z.z.z.z.z.",
"z.z.z.z.z.z.z.z.3.h n G y.k.;.a K 9.7 Q U $.v.z.z.z.z.z.z.z.z.z.",
"z.z.z.z.z.z.z.c.S x g -.u.z.y._ q.0.7 I 1 v.z.z.z.z.z.z.z.z.z.z.",
"z.z.z.z.z.z.z.y.=.4 3 y.z.z.u.@...*.L % } v.z.z.z.z.z.z.z.z.z.z.",
"z.z.z.z.z.z.k.z.z.i.u.z.z.z.u.$.I H & O $ x.z.z.z.z.z.z.z.z.z.z.",
"z.z.z.z.z.z.z.z.z.i.z.z.z.z.z.=.6 > @ X # c.z.z.z.z.z.z.z.z.z.z.",
"z.z.z.z.z.z.z.z.z.z.z.z.z.z.z.v.5.c.v.x.x.z.z.z.z.z.z.z.z.z.z.z.",
"z.z.z.z.z.z.z.z.z.z.z.z.z.z.z.z.z.z.z.z.z.z.z.z.z.z.z.z.z.z.z.z.",
"z.z.z.z.z.z.z.z.z.z.z.z.z.z.z.z.z.z.z.z.z.z.z.z.z.z.z.z.z.z.z.z.",
"z.z.z.z.z.z.z.z.z.z.z.z.z.z.z.z.z.z.z.z.z.z.z.z.z.z.z.z.z.z.z.z.",
"z.z.z.z.z.z.z.z.z.z.z.z.z.z.z.z.z.z.z.z.z.z.z.z.z.z.z.z.z.z.z.z.",
"z.z.z.z.z.i.z.z.z.z.z.z.z.z.z.z.z.z.z.z.z.z.z.z.z.z.z.z.z.z.z.z."
};
