/* XPM */
static char *C[] = {
/* columns rows colors chars-per-pixel */
"32 32 151 2 ",
"   c #2B3007",
".  c #343300",
"X  c #383700",
"o  c #3F3B02",
"O  c #3F3F09",
"+  c #2A3610",
"@  c #3E3F2D",
"#  c #422500",
"$  c #4A290A",
"%  c #413300",
"&  c #453A00",
"*  c #483A00",
"=  c #453013",
"-  c #403C17",
";  c #374200",
":  c #3C4500",
">  c #385400",
",  c #4B4E00",
"<  c #4A480B",
"1  c #544701",
"2  c #514D00",
"3  c #584A00",
"4  c #53430F",
"5  c #5A450E",
"6  c #4A5900",
"7  c #555603",
"8  c #515C00",
"9  c #5C5E00",
"0  c #57540F",
"q  c #534A11",
"w  c #5B4B10",
"e  c #4F5014",
"r  c #665209",
"t  c #605E0B",
"y  c #605D10",
"u  c #647D07",
"i  c #637D18",
"p  c #7F7D18",
"a  c #7B7827",
"s  c #77752B",
"d  c #78732F",
"f  c #767E31",
"g  c #81691F",
"h  c #8A771B",
"j  c #847424",
"k  c #907820",
"l  c #768200",
"z  c #708E14",
"x  c #7A8F18",
"c  c #749314",
"v  c #728126",
"b  c #7B8721",
"n  c #778A21",
"m  c #7D9027",
"M  c #7F9B2C",
"N  c #93891A",
"B  c #9C961C",
"V  c #A4930F",
"C  c #84A70F",
"Z  c #85AF0D",
"A  c #8AAE0E",
"S  c #93A708",
"D  c #91AB0A",
"F  c #99AE0B",
"G  c #8CB50E",
"H  c #91BF05",
"J  c #91B50B",
"K  c #94BD0C",
"L  c #98BE09",
"P  c #81A511",
"I  c #86AA11",
"U  c #8AAE15",
"Y  c #83AE1D",
"T  c #8CAE1C",
"R  c #93AE11",
"E  c #87B314",
"W  c #8CB116",
"Q  c #8EB219",
"!  c #8BBD1E",
"~  c #91B417",
"^  c #93BD14",
"/  c #9FBC12",
"(  c #92B61D",
")  c #9CB41B",
"_  c #94B91E",
"`  c #99BC1E",
"'  c #829320",
"]  c #949520",
"[  c #9E952C",
"{  c #A49B24",
"}  c #B09E38",
"|  c #82A026",
" . c #87A825",
".. c #8CA32F",
"X. c #87AE2D",
"o. c #8BAC2A",
"O. c #99A127",
"+. c #9CA32F",
"@. c #95AF2A",
"#. c #8DB126",
"$. c #8EB32C",
"%. c #94B523",
"&. c #96BA21",
"*. c #99BD24",
"=. c #90B52F",
"-. c #95BA2A",
";. c #9DBC2A",
":. c #8FB730",
">. c #93B431",
",. c #94BD30",
"<. c #9ABB31",
"1. c #9EB63C",
"2. c #9ABA3B",
"3. c #A2BC23",
"4. c #A3B428",
"5. c #A6BB2D",
"6. c #AEBB2D",
"7. c #B6B42D",
"8. c #ABB633",
"9. c #A3BB34",
"0. c #A9B932",
"q. c #BEB83E",
"w. c #C6BB3D",
"e. c #91C403",
"r. c #95C30B",
"t. c #98C40F",
"y. c #94C417",
"u. c #9EC217",
"i. c #9BC61E",
"p. c #A2C00A",
"a. c #A0C017",
"s. c #AECC1E",
"d. c #BBC315",
"f. c #97C121",
"g. c #9CC126",
"h. c #9EC229",
"j. c #9EC331",
"k. c #A0C426",
"l. c #A1C52B",
"z. c #A3C82D",
"x. c #A5C735",
"c. c #A9C636",
"v. c #A6C931",
"b. c #BFC531",
"n. c #CCC630",
"m. c #D0C932",
"M. c #9F954D",
"N. c #BCBC40",
"B. c #BEBC4B",
"V. c #CBBA44",
"C. c #B2C748",
/* pixels */
"&.Q _ _ %.*.&.v.&.` &.E &._ _ ( ( T &.( &.*.%.( *.h.*.%.*.&.&.( ",
"*.( %._ ( _ &.&.h.l.h._ f.` &.f.&.( &.Q _ ( ) *.*.*.*.h.*.T ( ( ",
"( Q ( &.&.( &.( Q &._ W &._ f.z.&.( ;.( ( ( _ &.( *.;.*.( _ ;.( ",
"Q *.%.;.;.%.&.( W _ U U &.Q _ h.&._ h.&.;.%.( _ %.( _ Q I ;.z.&.",
"_ v.;.;.*.( ( ;.&.f.Q _ f.&._ f.%.( ;.&.3.h.&._ ;.U U _ ( ( ;.z.",
"&.v.g._ ( ~ _ l.g.h._ g.h.` *.*.&.U ( ( ;.l.g.*.&.U ( &.( Q &.l.",
"&.&.&.( T ( &.3.l.z.&.z._ U ( Q _ U _ Q *.*.;.;.( _ 3.%.Q &._ %.",
"&.U %._ I ( ( T *.f.` z.Q I _ _ %.( &.Q *.%._ &.&.( &.%.&.&.Q &.",
"&.( %.~ ( *.&.( D ( W -.e.=.J ..0.S 4.@.Z W ;.F &.l.f.&.;.f._ Q ",
"&.Q &.&.;.v.h.%.;.a.o.y.i.>.D 8 < y 9 b o.Y j.^ _ &.*._ _ ` _ _ ",
"( I Q %.*.l.h.;.l.( ^ =.~ ) 7 B.b.N.N 9 n X.f.E &.` &._ Q Q _ _ ",
"( U %.) _ ;.l.v.;.^ U #.s., 7.r X * j [ ; z f.=.&.( ( _ Q ( _ _ ",
"%.( &._ Q &.&.*.K -.f.` 5.0 n.# ' d * M.. m W ) ( E W ( ( ` &._ ",
"_ ( &._ ~ %.U C -.t.Y h.) 7 [ k   - q a : x 0.0.` _ ( ` f.h.f._ ",
"&.&.l.*.;.l.&.U -._ e.o.&.6.4 w.+.] p : u  .<.3.h.l.h.h.l.l.*.( ",
"( %.l.;.*.l.5._ -.f.f.y.` q d.j = X & f >.Y =.^ &.h.h.&.*.f._ Q ",
"( _ ( ( Q _ f.Q y.%.c.8.3 V.5 % i | c %.k.A _ ~ ) _ z.*.T _ I &.",
"` _ _ g.&.W ( Q ^ -.1.7 m.V { d > ' <.;.( G k.( ( ( *.&.%.*.( &.",
"_ _ *.g.` W _ _ _ 2.6 N.g $ 1 O c <.x.;._ ` l._ *.%.( ( &.&.( T ",
"f.h.g.*.( ! ` E -.I ; 2 } h o v T ( g.k.` ` h.;.( ( U ( &.;.3.( ",
"z.v.h.&.( ( ` U *.%./ . w B l + Q ( k.&.~ *.&.( ( %.Q _ &.;.v.*.",
"h.f._ &.` _ &.Q K >.%.9.O.o @ c *.( _ ~ ` l.;.( ( _ ( %.Q ( h.&.",
"_ ( Q _ _ *.l.f.a.c :.K ;.p.3.j.*.( ` ;.;.) ( _ U Q _ ( U _ h._ ",
"W ` &._ ( f.l.i.C.r.y.#.G 9.i.#.l.;.&.%.%._ _ ` &.&.;.*.( %.*.( ",
"` W Q E Q &._ _ Q Q &.E ( ` &.f.&.&._ _ g.h.*.W ( 3.l.;.&.( ( &.",
"*.Q _ Q ( ` _ _ _ _ h.( _ _ &.` E W Q _ ` f.l.v.;.l.h._ _ ( T _ ",
"&._ &.&.` *.&.f.( ^ l.g.&.&.f.&.( _ _ _ Q W _ z.;.;._ ( ( ( ( ( ",
"&.f.f.&.&.h.h.h.( ( h.l.f.g.h.&.f.&.&._ Q W Q *._ %.( ( ;.*.&.( ",
"h.h.f.( &.h.z.f.*.( *.h.&.h.` Q *.f.;.` &.*.` _ %.) T &.*.;.*.( ",
"h.l.&.Q _ h.h.Q _ Q ( f._ &.Q W _ g.l.h.g.g.f.&.( ( U ( &.&.l.&.",
"g.h._ _ _ _ &.Q Q E _ f._ &.( _ Q _ f.g.f.*.*.&.Q ( Q &._ ( l.;.",
"y._ Q &.&.E _ ` ( &.f.h._ ` E ` ( Q ( *.*.( ( ( ( &._ ;.( U &.( "
};
